<?xml version="1.0" encoding="UTF-8" standalone="no"?>
<svg
   id="Capa_1"
   enable-background="new 0 0 512 512"
   height="512"
   viewBox="0 0 1400 512"
   width="1400"
   version="1.1"
   sodipodi:docname="hfs logo color 2 motto.svg"
   inkscape:version="1.2 (dc2aedaf03, 2022-05-15)"
   xml:space="preserve"
   xmlns:inkscape="http://www.inkscape.org/namespaces/inkscape"
   xmlns:sodipodi="http://sodipodi.sourceforge.net/DTD/sodipodi-0.dtd"
   xmlns="http://www.w3.org/2000/svg"
   xmlns:svg="http://www.w3.org/2000/svg"
   xmlns:rdf="http://www.w3.org/1999/02/22-rdf-syntax-ns#"
   xmlns:cc="http://creativecommons.org/ns#"
   xmlns:dc="http://purl.org/dc/elements/1.1/"><title
     id="title8343">HFS logo with motto</title><defs
     id="defs41" /><sodipodi:namedview
     id="namedview39"
     pagecolor="#ffffff"
     bordercolor="#666666"
     borderopacity="1.0"
     inkscape:showpageshadow="2"
     inkscape:pageopacity="0"
     inkscape:pagecheckerboard="0"
     inkscape:deskcolor="#d1d1d1"
     showgrid="false"
     inkscape:zoom="0.70917839"
     inkscape:cx="246.76443"
     inkscape:cy="165.68469"
     inkscape:window-width="2560"
     inkscape:window-height="1361"
     inkscape:window-x="-9"
     inkscape:window-y="-9"
     inkscape:window-maximized="1"
     inkscape:current-layer="g36" /><g
     id="g36"
     transform="matrix(0.81012677,0,0,0.81012677,91.130797,91.21519)"><g
       id="g299"
       transform="matrix(0.45249179,0,0,0.38872658,68.356083,23.899248)"><path
         style="fill:#ffa000"
         d="M 437.333,53.334 H 74.667 c -29.384,-0.048 -53.244,23.734 -53.292,53.119 -0.004,2.391 0.153,4.779 0.471,7.148 0.756,5.842 6.105,9.965 11.948,9.209 1.423,-0.184 2.794,-0.653 4.031,-1.38 4.706,-2.738 10.065,-4.153 15.509,-4.096 h 75.947 c 13.706,0.038 25.883,8.755 30.336,21.717 l 1.813,5.845 c 7.34,21.727 27.691,36.375 50.624,36.437 h 246.613 c 5.594,0.005 11.088,1.476 15.936,4.267 1.638,0.955 3.501,1.455 5.397,1.451 5.891,0 10.667,-4.776 10.667,-10.667 v -69.717 c 0,-29.455 -23.878,-53.333 -53.334,-53.333 z"
         id="path243" /><path
         style="fill:#ffc107"
         d="M 485.397,167.211 C 477.283,162.482 468.058,159.994 458.666,160 H 212.053 c -13.706,-0.038 -25.883,-8.755 -30.336,-21.717 l -1.813,-5.845 C 172.564,110.711 152.213,96.063 129.28,96.001 H 53.333 C 44.168,95.912 35.149,98.292 27.221,102.892 10.408,112.301 -0.005,130.066 0,149.334 v 256 c 0,29.455 23.878,53.333 53.333,53.333 h 405.333 c 29.455,0 53.333,-23.878 53.333,-53.333 v -192 c 0.066,-19.038 -10.09,-36.646 -26.602,-46.123 z"
         id="path245" /><g
         id="g247">
</g><g
         id="g249">
</g><g
         id="g251">
</g><g
         id="g253">
</g><g
         id="g255">
</g><g
         id="g257">
</g><g
         id="g259">
</g><g
         id="g261">
</g><g
         id="g263">
</g><g
         id="g265">
</g><g
         id="g267">
</g><g
         id="g269">
</g><g
         id="g271">
</g><g
         id="g273">
</g><g
         id="g275">
</g></g><path
       d="m 210.461,297.734 c 0,0 27.455,-51.437 23.689,-58.496 0,-0.004 0,-0.007 -0.001,-0.01 -13.988,3.025 -26.241,11.882 -33.432,24.642 l -17.779,31.548 -39.94,41.501 c 26.72,-12.329 67.463,-39.185 67.463,-39.185 z"
       fill="#e2ae84"
       id="path2" /><path
       d="m 244.857,238.077 c -3.644,0 -7.227,0.408 -10.707,1.16 -0.236,0.811 -0.593,1.61 -1.114,2.371 l -2.63,3.84 c -0.546,0.745 -1.073,1.508 -1.571,2.294 l -26.509,41.854 c 0,0 -32.608,34.992 -59.328,47.32 l -9.052,9.405 c 1.518,1.079 3.133,2.029 4.883,2.8 25.005,11.018 87.189,-33.753 87.189,-33.753 l 21.398,-58.336 c 0.498,-0.787 1.025,-1.55 1.571,-2.294 l 2.63,-3.84 c 3.723,-5.436 -0.17,-12.821 -6.76,-12.821 z"
       fill="#d7a379"
       id="path4" /><path
       d="M 81.516008,456.607 H 102.071 c 22.846,-15.428 85.56,-64.321 102.798,-85.835 l 36.13,-48.174 c 9.917,-12.377 19.573,-26.721 26.95,-40.761 l 14.683,-32.176 c 1.644,-3.13 -2.668,-8.915 -6.669,-11.139 -11.663,1.705 -22.138,8.391 -28.548,18.511 l -26.509,41.854 c 0,0 -57.072,61.254 -82.077,50.235 -4.143,-1.826 -7.595,-4.573 -10.508,-8.007 -4.557,-2.947 -5.911,-3.712 -8.073,-5.23 -20.245,-14.214 -16.229,-46.888 -18.953,-79.128 -0.606,-7.175 -7.399997,-13.961 -17.312993,-18.463 -1.177,-0.138 -2.370999,-0.217 -3.582999,-0.217 -5.175997,0 -9.483996,3.975 -9.899996,9.134 l -3.422998,42.501 c -1.628,20.212 -8.121997,39.647 -18.350993,57.155 -16.290993,27.885 -15.511993,61.399 -15.511993,61.399 l 7.657996,41.147 z"
       fill="#f0c69e"
       id="path6" /><g
       fill="#e6ba94"
       id="g12"
       transform="translate(-78.99997)"><path
         d="m 171.295,256.758 c 2.724,32.24 4.148,72.586 27.953,83.075 2.417,1.065 5.137,1.448 8.073,1.283 -13.82,-16.298 -15.195,-48.44 -17.445,-75.068 -1.235,-14.615 -12.646,-26.087 -26.894,-27.754 4.643,4.874 7.707,11.288 8.313,18.464 z"
         id="path8" /><path
         d="m 360.86,238.077 c -1.991,0 -3.959,0.161 -5.897,0.445 0.819,3.017 0.582,6.369 -1.063,9.498 l -16.221,30.872 c -7.377,14.04 -16.084,27.34 -26.001,39.717 L 274.74,364.71 c -17.238,21.514 -37.624,40.302 -60.47,55.73 l -53.755,36.165 -2.162,14.779 15.183,-1.747 59.315,-39.906 c 22.846,-15.428 43.232,-34.217 60.47,-55.73 L 330.259,327.9 c 9.917,-12.377 18.624,-25.677 26.001,-39.717 l 16.221,-30.872 c 4.593,-8.741 -1.746,-19.234 -11.621,-19.234 z"
         id="path10" /></g><path
       d="m 369.38974,-47.27683 1.29333,-1.36306 c 7.68084,-8.094937 7.34446,-20.882782 -0.74975,-28.562933 -8.09421,-7.68015 -20.88137,-7.3445 -28.56152,0.749711 l -1.29333,1.36306 9.37491,19.471309 z"
       fill="#f1cd65"
       id="path14"
       inkscape:transform-center-x="9.7831428"
       inkscape:transform-center-y="-217.30024" /><path
       d="m 340.07778,-75.089326 -12.78947,13.478987 9.16911,19.688209 20.14354,8.123562 12.78878,-13.478262 c -4.35786,-5.061293 -8.99996,-9.956679 -13.94876,-14.652322 -4.94811,-4.696368 -10.08098,-9.074531 -15.3632,-13.160174 z"
       fill="#ebb34f"
       id="path16"
       inkscape:transform-center-x="17.73505"
       inkscape:transform-center-y="-208.73749" /><path
       d="M 382.03346,187.29667 C 422.02728,110.72025 408.43453,13.966334 342.6522,-48.45089 276.86987,-110.86811 179.5354,-119.36553 105.16326,-75.410168 L 237.40358,62.472013 Z"
       fill="#d0e4fd"
       id="path18"
       inkscape:transform-center-x="93.49059"
       inkscape:transform-center-y="-130.45677" /><path
       d="m 105.16326,-75.410168 c -5.443479,3.217738 -10.768797,6.706119 -15.945025,10.484844 L 372.39956,203.76981 c 3.50196,-5.36735 6.70616,-10.86834 9.6339,-16.47314 z"
       fill="#c5dcfa"
       id="path20"
       inkscape:transform-center-x="109.04701"
       inkscape:transform-center-y="-112.63719" /><path
       d="m -44.346972,210.811 c 0,9.692 8.845,17.686 15.368,17.686 H 382.979 c 6.523,0 15.368,-7.375 15.368,-17.686 -3.15,-5.2 -8.845,-8.686 -15.368,-8.686 H -28.978972 c -6.523,-0.001 -12.218,3.486 -15.368,8.686 z"
       fill="#315771"
       id="path22"
       inkscape:transform-center-x="158.037"
       inkscape:transform-center-y="16.066231" /><path
       d="m 56.636018,501.393 25.45099,-7.453 9.375996,-27.374 -63.561974,-63.562 c -3.137999,-3.138 -8.225998,-3.138 -11.363998,0 l -23.4640029,23.464 c -3.1380011,3.138 -3.1380011,8.226 0,11.364 z"
       fill="#edf3fc"
       id="path24" /><path
       d="m 91.464004,466.565 -34.827986,34.828 8.252997,8.254 c 3.137998,3.138 8.225996,3.138 11.363995,0 l 23.463991,-23.464 c 3.137999,-3.138 3.137999,-8.226 0,-11.364 z"
       fill="#e0ebf9"
       id="path26" /><path
       d="M 382.979,219.497 H -28.978972 c -6.524,0 -12.218,-3.487 -15.368,-8.686 -1.644,2.714 -2.608,5.886 -2.608,9.29 0,9.928 8.048,17.976 17.977,17.976 H 382.98 c 9.928,0 17.976,-8.048 17.976,-17.976 0,-3.405 -0.964,-6.577 -2.608,-9.29 -3.151,5.199 -8.846,8.686 -15.369,8.686 z"
       fill="#2a4a5f"
       id="path28" /><path
       style="fill:#a5a5b6;fill-opacity:1;stroke-width:0.87606"
       d="M 69.339333,17.568517 C 67.359424,5.9875286 59.965207,1.0557366 55.735498,-3.0918604 41.158143,-17.386199 38.233773,-21.619639 35.069493,-33.008713 c -3.60059,-12.959457 -2.40408,-24.930363 3.00291,-30.042916 3.49471,-3.304425 4.71663,-2.887096 1.52601,0.521164 -6.40525,6.8422 -5.74816,16.167048 2.03081,28.820125 4.92824,8.016201 6.12017,9.736335 12.1758,17.572029 10.633952,11.5047706 19.261388,22.7783916 17.581899,35.266465 l -0.82009,5.620314 z"
       id="path201-0"
       sodipodi:nodetypes="sssssscccs" /><path
       style="fill:#a5a5b6;fill-opacity:1;stroke-width:0.87606"
       d="M 95.955852,-8.5974892 C 93.975943,-20.178477 86.581726,-25.110269 82.352018,-29.257866 67.774664,-43.552205 64.850295,-47.785645 61.686016,-59.174719 c -3.600589,-12.959457 -2.404079,-24.930363 3.002909,-30.042916 3.494708,-3.304425 4.716628,-2.887096 1.526009,0.521164 -6.405247,6.8422 -5.748157,16.167048 2.030809,28.820125 4.928238,8.016201 6.120168,9.736335 12.175795,17.572029 10.633956,11.504771 19.261393,22.778392 17.581903,35.2664648 l -0.820089,5.620314 z"
       id="path201-0-6"
       sodipodi:nodetypes="sssssscccs" /><g
       aria-label="Serve fresh"
       transform="scale(0.91779368,1.0895695)"
       id="text7741"
       style="font-size:410.163px;line-height:1.25;font-family:frenchpress;-inkscape-font-specification:frenchpress;fill:#2a4a5f;stroke-width:10.254"><path
         d="m 573.18129,106.66436 c 0,-27.070756 20.09799,-49.219558 44.2976,-49.219558 9.43375,0 17.63701,3.281304 25.01995,8.613423 0.82032,0.410163 11.0744,9.023586 12.71505,29.531735 0,0.410163 0.41016,5.33212 7.38293,5.33212 5.33212,-0.82033 5.33212,-5.33212 5.33212,-5.742283 -1.23049,-27.48092 -16.40652,-38.965484 -17.22684,-39.78581 -9.43375,-7.382934 -20.91832,-11.074401 -33.22321,-11.074401 -31.99271,0 -57.83298,27.480921 -57.83298,61.934614 0,74.2395 113.20499,61.93461 113.20499,139.45542 0,36.5045 -16.40652,75.88015 -62.75494,75.88015 -23.37929,0 -53.73135,-22.1488 -53.73135,-50.45005 0,-11.89472 8.61342,-22.96913 19.68782,-22.96913 8.20326,0 15.99636,5.74229 17.22685,15.17604 0,6.5626 -2.05082,11.89472 -6.15245,11.89472 -2.05081,0 -3.69146,-1.23049 -3.69146,-3.69147 0,-1.23048 0.82032,-2.87114 0.82032,-4.10163 0,-3.69146 -3.69146,-6.15244 -7.38293,-6.15244 -4.92196,0 -6.97277,4.10163 -6.97277,10.66424 0,10.25407 6.56261,18.8675 15.99635,18.8675 12.30489,0 20.09799,-11.89473 20.09799,-23.3793 0,-20.09798 -14.76587,-33.2232 -29.9419,-33.2232 -18.45733,0 -32.40287,15.99636 -32.40287,38.14516 0,32.81304 34.04352,62.75494 66.4464,62.75494 46.34842,0 76.29032,-35.27402 76.29032,-89.41553 0,-86.13423 -113.20499,-80.39195 -113.20499,-139.04526 z"
         id="path16699" /><path
         d="M 793.43879,220.27951 C 792.2083,171.05995 773.3408,142.34854 751.192,142.34854 c -25.01994,0 -44.2976,42.24679 -44.2976,96.79847 0,56.19233 20.09798,95.56798 45.93825,95.56798 35.68418,0 36.91467,-48.8094 36.91467,-53.73136 -0.41016,-4.10163 -3.69146,-6.5626 -6.97277,-6.5626 -2.46098,0 -4.92195,2.05081 -4.92195,5.33211 0,0.41017 0,0.82033 0,1.23049 0,5.33212 -2.46098,40.19598 -26.6606,40.19598 -16.40652,0 -31.58255,-36.09435 -31.58255,-85.72407 h 74.2395 z M 751.192,157.52457 c 13.12522,0 26.6606,22.55897 29.12157,62.75494 h -59.47363 c 3.2813,-37.73499 17.22685,-62.75494 30.35206,-62.75494 z"
         id="path16701" /><path
         d="m 852.09182,158.3449 c -4.92196,4.51179 -9.43375,10.66424 -13.12522,16.40652 v -24.60978 c 0,-3.69147 -2.46097,-6.15245 -5.74228,-6.15245 h -0.41016 c -3.2813,0 -6.15245,2.46098 -6.15245,6.15245 v 64.39559 c 0,1.23049 0,110.74401 0,110.74401 0,3.2813 2.87115,6.15244 6.15245,6.15244 h 0.41016 c 3.28131,0 5.74228,-2.87114 5.74228,-6.15244 V 218.63886 c 0,-19.27766 15.5862,-61.11429 47.57891,-61.11429 1.23049,0 2.46098,0 3.69147,0 2.05081,0 7.7931,-0.41016 7.7931,-6.97277 0,-7.7931 -12.71506,-5.74228 -11.89473,-5.74228 -13.12522,0 -24.60978,4.51179 -34.04353,13.53538 z"
         id="path16703" /><path
         d="m 983.75452,144.80952 h -0.41016 c -0.82033,0 -1.23049,-0.41016 -1.64065,-0.41016 -2.87114,0 -4.92196,2.46097 -5.33212,4.92195 L 947.66018,297.80032 918.94877,149.32131 c -0.82033,-2.46098 -2.87114,-4.92195 -5.74228,-4.92195 -0.41017,0 -1.23049,0.41016 -1.64065,0.41016 h -0.41017 c -2.87114,0.41016 -4.92195,2.46098 -4.92195,5.33212 0,0.41016 0,1.23049 0.41016,1.64065 l 34.45369,176.78025 c 0.41016,3.69147 3.69147,4.92196 7.38293,4.92196 2.87115,0 5.33212,-2.05082 6.15245,-4.92196 l 34.04353,-176.78025 c 0,-0.41016 0,-0.41016 0,-0.82033 0,-2.87114 -2.05082,-5.74228 -4.92196,-6.15244 z"
         id="path16705" /><path
         d="m 1096.1394,220.27951 c -1.2304,-49.21956 -20.0979,-77.93097 -42.2467,-77.93097 -25.02,0 -44.2976,42.24679 -44.2976,96.79847 0,56.19233 20.0979,95.56798 45.9382,95.56798 35.6842,0 36.9147,-48.8094 36.9147,-53.73136 -0.4102,-4.10163 -3.6915,-6.5626 -6.9728,-6.5626 -2.461,0 -4.922,2.05081 -4.922,5.33211 0,0.41017 0,0.82033 0,1.23049 0,5.33212 -2.4609,40.19598 -26.6605,40.19598 -16.4066,0 -31.5826,-36.09435 -31.5826,-85.72407 h 74.2395 z m -42.2467,-62.75494 c 13.1252,0 26.6605,22.55897 29.1215,62.75494 h -59.4736 c 3.2813,-37.73499 17.2268,-62.75494 30.3521,-62.75494 z"
         id="path16707" /><path
         d="m 1247.079,44.729749 c -29.5317,0 -41.8366,19.277661 -41.8366,63.985431 v 36.09434 h -20.098 c -3.6915,0 -6.5626,2.87114 -6.5626,6.56261 0,3.2813 2.8711,6.15244 6.5626,6.15244 h 20.098 v 170.62781 c 0,3.2813 3.2813,6.15244 6.1524,6.15244 h 0.4102 c 3.2813,0 5.7423,-2.87114 5.7423,-6.15244 V 157.52457 h 20.9183 c 3.6915,0 6.1524,-2.87114 6.1524,-6.15244 0,-3.69147 -2.4609,-6.56261 -6.1524,-6.56261 h -20.9183 v -36.09434 h 0.8203 c 0,-50.860215 17.2269,-50.860215 28.7114,-50.860215 3.6915,0 11.8947,2.460978 15.5862,8.20326 0,0 2.461,3.691467 5.7423,3.691467 4.922,0 6.5626,-5.742282 6.5626,-6.972771 0,-13.125216 -23.7895,-18.047172 -27.8911,-18.047172 z"
         id="path16709" /><path
         d="m 1296.7084,158.3449 c -4.922,4.51179 -9.4338,10.66424 -13.1252,16.40652 v -24.60978 c 0,-3.69147 -2.461,-6.15245 -5.7423,-6.15245 h -0.4102 c -3.2813,0 -6.1524,2.46098 -6.1524,6.15245 v 64.39559 c 0,1.23049 0,110.74401 0,110.74401 0,3.2813 2.8711,6.15244 6.1524,6.15244 h 0.4102 c 3.2813,0 5.7423,-2.87114 5.7423,-6.15244 V 218.63886 c 0,-19.27766 15.5862,-61.11429 47.5789,-61.11429 1.2305,0 2.461,0 3.6915,0 2.0508,0 7.7931,-0.41016 7.7931,-6.97277 0,-7.7931 -12.7151,-5.74228 -11.8948,-5.74228 -13.1252,0 -24.6098,4.51179 -34.0435,13.53538 z"
         id="path16711" /><path
         d="m 1441.4963,220.27951 c -1.2305,-49.21956 -20.098,-77.93097 -42.2468,-77.93097 -25.02,0 -44.2976,42.24679 -44.2976,96.79847 0,56.19233 20.0979,95.56798 45.9382,95.56798 35.6842,0 36.9147,-48.8094 36.9147,-53.73136 -0.4102,-4.10163 -3.6915,-6.5626 -6.9728,-6.5626 -2.461,0 -4.9219,2.05081 -4.9219,5.33211 0,0.41017 0,0.82033 0,1.23049 0,5.33212 -2.461,40.19598 -26.6606,40.19598 -16.4066,0 -31.5826,-36.09435 -31.5826,-85.72407 h 74.2395 z m -42.2468,-62.75494 c 13.1252,0 26.6606,22.55897 29.1215,62.75494 h -59.4736 c 3.2813,-37.73499 17.2269,-62.75494 30.3521,-62.75494 z"
         id="path16713" /><path
         d="m 1484.153,187.87663 c 0,-22.1488 14.7658,-30.76222 28.7114,-30.76222 6.1524,0 13.5353,2.05081 20.9183,10.25407 0.8203,1.23049 2.8711,2.46098 5.3321,2.46098 3.2813,0 6.5626,-2.87114 6.5626,-5.74228 0,-2.46098 -1.6406,-4.51179 -1.6406,-4.51179 -9.4338,-13.12522 -22.9692,-15.17603 -32.4029,-15.17603 -24.1996,0 -39.7858,17.22684 -40.196,43.06711 2.461,53.32119 67.2667,36.91467 67.2667,88.59521 0,10.25407 -2.4609,44.2976 -33.6333,44.2976 -9.0236,0 -29.9419,-3.2813 -29.9419,-36.91467 0,0.41016 -0.4102,-6.56261 -6.5626,-6.56261 -6.1525,0 -6.1525,6.56261 -6.1525,6.56261 0,47.57891 34.8639,50.03989 42.657,50.03989 27.8911,0 46.3484,-22.96913 46.3484,-57.42282 0,-58.65331 -67.2667,-49.62972 -67.2667,-88.18505 z"
         id="path16715" /><path
         d="m 1670.3669,188.2868 c 0,-22.96913 -19.2776,-41.83663 -43.4772,-41.83663 -11.4846,0 -22.1488,4.92196 -29.5318,12.71505 V 52.112683 c 0,-3.691467 -2.8711,-6.152445 -6.5626,-6.152445 -3.2813,0 -6.5626,2.460978 -6.5626,6.152445 V 184.18517 c 0,1.64065 0,143.55705 0,143.55705 0,3.2813 3.2813,6.15244 6.5626,6.15244 3.6915,0 6.5626,-2.87114 6.5626,-6.15244 V 188.2868 c 0,-15.99636 13.1252,-28.71141 29.5318,-28.71141 15.5861,0 28.7114,11.48456 30.352,24.60978 0.4102,1.64065 0.4102,18.04717 0.4102,39.37564 0,42.65696 -0.4102,104.18141 -0.4102,104.18141 0,3.2813 2.8712,5.74228 6.1525,5.74228 3.6914,0 6.5626,-2.46098 6.5626,-5.74228 z"
         id="path16717" /></g><g
       id="g34"
       transform="translate(-82.598532,-2.4543263)"><path
         d="m 105.036,425.651 c -3.029,-3.029 -7.941,-3.029 -10.97,0 -3.029,3.029 -3.029,7.941 0,10.97 l 7.477,7.477 c 1.515,1.514 3.5,2.272 5.485,2.272 1.985,0 3.97,-0.758 5.485,-2.272 3.03,-3.029 3.03,-7.941 0,-10.97 z"
         fill="#315771"
         id="path32" /></g></g><metadata
     id="metadata8341"><rdf:RDF><cc:Work
         rdf:about=""><dc:title>HFS logo with motto</dc:title><dc:creator><cc:Agent><dc:title>Massimo Melina</dc:title></cc:Agent></dc:creator></cc:Work></rdf:RDF></metadata></svg>
